# This file uses centimeters as units for non-parametric coordinates.

g default
v -198.617249 -0.000001 208.057983
v -207.204163 -0.000001 199.470947
v 207.204163 -0.000001 199.470947
v 198.617554 -0.000001 208.057983
v 198.617554 44.871140 199.470947
v 198.617554 36.284458 208.057983
v 207.204163 36.284458 199.470947
v -207.204163 36.284458 199.470947
v -198.617249 36.284458 208.057983
v -198.617249 44.871140 199.470947
v 198.922791 37.790821 -207.739990
v 198.935303 46.488480 -199.265991
v -207.204163 36.301838 -197.781006
v -198.635193 44.905918 -197.816040
v -198.635193 36.336540 -206.385010
v 199.619202 38.618690 -208.057983
v 199.022400 46.713478 -199.605957
v 207.204163 37.096119 -198.574951
v -207.204163 -0.000001 -197.764038
v -198.617249 -0.000001 -206.349976
v 198.617554 -0.000001 -206.349976
v 207.204163 -0.000001 -197.764038
vt 0.284618 0.970509
vt 0.284548 0.968758
vt 0.289760 0.968734
vt 0.289992 0.970403
vt 0.284546 0.911607
vt 0.284601 0.909827
vt 0.290011 0.909983
vt 0.289759 0.911629
vt 0.272329 0.972866
vt 0.270584 0.972870
vt 0.270520 0.915657
vt 0.272329 0.915486
vt 0.291500 0.911607
vt 0.291500 0.968758
vt 0.276615 0.972852
vt 0.274869 0.972852
vt 0.274869 0.915722
vt 0.276608 0.915750
vt 0.070721 0.897649
vt 0.070737 0.895904
vt 0.070772 0.895953
vt 0.070872 0.897598
vt 0.013583 0.897255
vt 0.013596 0.895513
vt 0.276372 0.914082
vt 0.281753 0.913978
vt 0.281822 0.915729
vt 0.270935 0.914001
vt 0.265192 0.915771
vt 0.265210 0.913996
vt 0.265368 0.972886
vt 0.281832 0.972851
vt 0.013780 0.838413
vt 0.070872 0.838594
vt 0.420028 0.337716
vt 0.420148 0.280576
vt 0.420028 0.280467
vt 0.425583 0.280651
vt 0.425250 0.337743
vn -0.999776 -0.000002 0.021149
vn -0.021154 0.000000 0.999776
vn -0.018184 0.185847 0.982410
vn -0.982458 0.185597 0.018193
vn 0.021154 0.000000 0.999776
vn 0.999782 0.000000 0.020904
vn 0.983820 0.178200 0.018497
vn 0.018184 0.185847 0.982410
vn 0.019972 0.999539 0.022870
vn 0.983820 0.178200 0.018497
vn 0.982337 0.186261 -0.017937
vn 0.051119 0.998691 0.001848
vn 0.018184 0.185847 0.982410
vn 0.019972 0.999539 0.022870
vn -0.023003 0.999476 0.022795
vn -0.018184 0.185847 0.982410
vn -0.982458 0.185597 0.018193
vn -0.023003 0.999476 0.022795
vn -0.023077 0.999555 -0.018908
vn -0.982404 0.185880 -0.018182
vn -0.002985 0.121234 -0.992620
vn -0.002398 0.999858 -0.016686
vn -0.837172 0.373543 -0.399512
vn -0.837171 0.373543 -0.399512
vn -0.002398 0.999858 -0.016686
vn -0.002985 0.121234 -0.992620
vn -0.020813 0.166322 -0.985852
vn -0.023077 0.999555 -0.018908
vn -0.982404 0.185880 -0.018182
vn -0.020813 0.166322 -0.985852
vn -0.022721 -0.018844 -0.999564
vn -0.999777 -0.000022 -0.021136
vn 0.047426 -0.016732 -0.998735
vn 0.982337 0.186261 -0.017937
vn 0.999798 -0.000962 -0.020053
vn 0.020481 -0.019804 -0.999594
vn -0.021154 0.000000 0.999776
vn 0.021154 0.000000 0.999776
vn 0.018184 0.185847 0.982410
vn -0.018184 0.185847 0.982410
vn 0.982337 0.186261 -0.017937
vn 0.983820 0.178200 0.018497
vn 0.999782 0.000000 0.020904
vn 0.999798 -0.000962 -0.020053
vn -0.982404 0.185880 -0.018182
vn -0.999777 -0.000022 -0.021136
vn -0.999776 -0.000002 0.021149
vn -0.982458 0.185597 0.018193
vn -0.002398 0.999858 -0.016686
vn -0.023077 0.999555 -0.018908
vn -0.023003 0.999476 0.022795
vn 0.019972 0.999539 0.022870
vn 0.051119 0.998691 0.001848
vn -0.020813 0.166322 -0.985852
vn -0.002985 0.121234 -0.992620
vn 0.047426 -0.016732 -0.998735
vn 0.020481 -0.019804 -0.999594
vn -0.022721 -0.018844 -0.999564
vn 0.019972 0.999539 0.022870
vn 0.018184 0.185847 0.982410
vn 0.983820 0.178200 0.018497
vn -0.982458 0.185597 0.018193
vn -0.018184 0.185847 0.982410
vn -0.023003 0.999476 0.022795
vn -0.982404 0.185880 -0.018182
vn -0.023077 0.999555 -0.018908
vn -0.020813 0.166322 -0.985852
vn 0.047426 -0.016732 -0.998735
vn 0.051119 0.998691 0.001848
vn 0.982337 0.186261 -0.017937
s off
g Brick
f 2/1/1 1/2/2 9/3/3 8/4/4
f 4/5/5 3/6/6 7/7/7 6/8/8
f 5/9/9 7/10/10 18/11/11 17/12/12
f 6/8/13 5/13/14 10/14/15 9/3/16
f 8/15/17 10/16/18 14/17/19 13/18/20
f 11/19/21 12/20/22 17/21/23 16/22/24
f 12/20/25 11/19/26 15/23/27 14/24/28
f 13/18/29 15/25/30 20/26/31 19/27/32
f 16/28/33 18/11/34 22/29/35 21/30/36
f 1/2/37 4/5/38 6/8/39 9/3/40
f 18/11/41 7/10/42 3/31/43 22/29/44
f 13/18/45 19/27/46 2/32/47 8/15/48
f 12/20/49 14/24/50 10/33/51 5/34/52 17/21/53
f 15/35/54 11/36/55 16/37/56 21/38/57 20/39/58
f 5/13/59 6/8/60 7/7/61
f 8/4/62 9/3/63 10/14/64
f 13/18/65 14/17/66 15/25/67
f 16/28/68 17/12/69 18/11/70
